# xmcd
#
# Track frame offsets:
#	150
#	18360
#	34217
#	54300
#	71647
#	88877
#	104100
#	122330
#	138095
#	157220
#	169467
#	181985
#
# Disc length: 2635 seconds
#
# Revision: 0
# Processed by: cddbd v1.4PL0 Copyright (c) Steve Scherf et al.
# Submitted via: dBpowerAMP V4.0
#
DISCID=a80a490c
DTITLE=Misc - Country Today
DYEAR=1900
DGENRE=
TTITLE0=Any Man of Mine- Shaina Twain
TTITLE1=Pickup Man- K.K. Phillips
TTITLE2=When You Say Nothing at All- D. Schlitz
TTITLE3=I Can Love You Like That- S. Diamond
TTITLE4=Livin' on Love- A. Jackson
TTITLE5=Walking away a Winner- T Shapiro
TTITLE6=The Keeper of the Stars- D. Lee
TTITLE7=Rock My World (lil counrty girl)- B. Labounty
TTITLE8=She Thinks His Name was John- S Knox
TTITLE9=I Try to Think About Elvis- G Burr
TTITLE10=Summer's Commin- C Black
TTITLE11=House of Cards- MC Carpenter
EXTD=Country Today\n
EXTT0=
EXTT1=
EXTT2=
EXTT3=
EXTT4=
EXTT5=
EXTT6=
EXTT7=
EXTT8=
EXTT9=
EXTT10=
EXTT11=
PLAYORDER=
